<?xml version="1.0" encoding="utf-8"?>
<!-- Generator: Adobe Illustrator 16.0.0, SVG Export Plug-In . SVG Version: 6.00 Build 0)  -->
<!DOCTYPE svg PUBLIC "-//W3C//DTD SVG 1.1//EN" "http://www.w3.org/Graphics/SVG/1.1/DTD/svg11.dtd">
<svg version="1.1" id="Layer_1" xmlns="http://www.w3.org/2000/svg" xmlns:xlink="http://www.w3.org/1999/xlink" x="0px" y="0px"
	 width="116px" height="107px" viewBox="0 0 116 107" enable-background="new 0 0 116 107" xml:space="preserve">
<title>logo</title>
<desc>Created with Sketch.</desc>
<g id="Login">
	<g id="_x23_1" transform="translate(-130.000000, -46.000000)">
		<g id="logo" transform="translate(130.000000, 46.000000)">
			<polygon id="Fill-1" fill="#2C8CA5" points="37.685,48.248 57.037,87.918 61.521,101.798 55.062,97.879 			"/>
			<path id="Fill-2" fill="#007499" d="M82.505,37.544L64.352,42.05c0,0,3.463,7.252,5.344,8.674
				c2.271,1.715,11.266,3.877,11.266,3.877L82.505,37.544z"/>
			<path id="Fill-4" fill="#334D5C" d="M89.847,41.468l23.413,3.924c0,0-6.037-2.29-11.521-4.104
				c-5.634-1.863-9.488-3.437-9.488-3.437L89.847,41.468z"/>
			<path id="Fill-6" fill="#2C8CA5" d="M79.273,33.366l2.463,6.593l10.513-2.109c0,0-2.402-1.773-6.158-3.238
				C83.17,33.473,79.273,33.366,79.273,33.366"/>
			<path id="Fill-8" fill="#00A1B7" d="M92.25,37.85L80.961,54.602c0,0-2.036-2.12-1.626-7.663c0.414-5.545,2.401-6.979,2.401-6.979
				s3.098-1.294,5.166-1.696C89.583,37.742,92.25,37.85,92.25,37.85"/>
			<path id="Fill-10" fill="#FCC74A" d="M92.25,37.85c0,0,0.498,0.745,0.662,1.676c0.177,1,0.108,1.856,0.108,1.856
				s-0.242,3.364-3.898,7.216c-3.458,3.643-8.161,6.003-8.161,6.003"/>
			<path id="Fill-12" fill="#00A0B4" d="M79.273,33.366l2.463,6.593L64.352,42.05c0,0,2.752-2.872,6.527-5.728
				C74.786,33.366,79.273,33.366,79.273,33.366"/>
			<g id="Clip-15">
			</g>
			<defs>
				<filter id="Adobe_OpacityMaskFilter" filterUnits="userSpaceOnUse" x="0" y="0.029" width="64.351" height="48.897">
					<feColorMatrix  type="matrix" values="1 0 0 0 0  0 1 0 0 0  0 0 1 0 0  0 0 0 1 0"/>
				</filter>
			</defs>
			<mask maskUnits="userSpaceOnUse" x="0" y="0.029" width="64.351" height="48.897" id="mask-2">
				<g filter="url(#Adobe_OpacityMaskFilter)">
					<polygon id="path-1" fill="#FFFFFF" points="64.352,0.029 0,0.029 0,48.927 64.352,48.927 					"/>
				</g>
			</mask>
			<path id="Fill-14" mask="url(#mask-2)" fill="#334D5C" d="M0.004,0.029c0,0-0.678,24.323,16.451,41.861
				c15.368,15.737,47.896,0.16,47.896,0.16S43.131,36.662,0.004,0.029"/>
			<path id="Fill-17" fill="#00A0B4" d="M42.911,62.979c0,0-12.24-0.843-25.568-8.125C7.673,49.568,0.004,40.981,0.004,40.981
				c34.733,4.891,64.348,1.069,64.348,1.069l4.582,27.647L42.911,62.979z"/>
			<path id="Fill-19" fill="#009FB3" d="M80.961,54.604l-9.71,21.116l-6.93-33.696c0,0,3.971,4.709,7.542,7.379
				C75.881,52.406,80.961,54.604,80.961,54.604"/>
			<path id="Fill-21" fill="#334D5C" d="M42.911,62.979c-0.396-0.068,37.4,43.182,37.4,43.182l4.569-9.733l-17.9-18.203
				l0.345-16.138C67.325,62.086,55.191,65.091,42.911,62.979"/>
			<polygon id="Fill-23" fill="#FCC74A" points="71.251,75.72 91.468,96.681 63.142,79.032 			"/>
			<path id="Fill-25" fill="#007499" d="M91.468,96.681l-6.882,0.123c0,0-6.237-6.442-8.542-8.353
				c-3.058-2.532-12.902-9.419-12.902-9.419s6.911,2.315,12.891,5.873C79.821,87.16,91.468,96.681,91.468,96.681"/>
			<polygon id="Fill-27" fill="#2C8CA5" points="42.911,62.979 80.312,106.16 71.162,106.831 			"/>
			<path id="Fill-29" fill="#334D5C" d="M42.911,62.979c0,0,9.958,18.705,12.833,24.938c1.562,3.387,4.911,13.544,4.911,13.544
				l10.507,5.37c0,0-5.838-12.551-11.937-20.941C50.875,74.403,42.911,62.979,42.911,62.979"/>
			<path id="Fill-31" fill="#007499" d="M64.326,42.064c0,0,4.492,7.557,6.037,17.455c1.341,8.586,0.888,16.201,0.888,16.201
				l-8.109,3.313c0,0,2.912-10.602,2.754-18.806C65.695,49.898,64.326,42.064,64.326,42.064"/>
			<path id="Fill-33" fill="#FEFEFE" d="M85.757,40.837c0.498,0.438-0.503,0.274-0.944,0.767c-0.443,0.495-0.159,1.458-0.657,1.022
				c-0.499-0.438-0.545-1.194-0.101-1.688C84.496,40.444,85.259,40.399,85.757,40.837"/>
		</g>
	</g>
</g>
</svg>
