<?xml version="1.0" encoding="utf-8"?>
<!-- Generator: Adobe Illustrator 16.0.0, SVG Export Plug-In . SVG Version: 6.00 Build 0)  -->
<!DOCTYPE svg PUBLIC "-//W3C//DTD SVG 1.1//EN" "http://www.w3.org/Graphics/SVG/1.1/DTD/svg11.dtd">
<svg version="1.1" id="Layer_1" xmlns="http://www.w3.org/2000/svg" xmlns:xlink="http://www.w3.org/1999/xlink" x="0px" y="0px"
	 width="26px" height="27px" viewBox="0 0 26 27" enable-background="new 0 0 26 27" xml:space="preserve">
<title>Search Icon</title>
<desc>Created with Sketch.</desc>
<g id="Tourist">
	<g id="Tourist-1" transform="translate(-133.000000, -631.000000)">
		<g id="Search" transform="translate(132.666667, 631.000000)">
			<path id="Search-Icon" fill="#7A797B" d="M16.282,18.382c-1.644,1.213-3.676,1.931-5.875,1.931c-5.471,0-9.906-4.436-9.906-9.907
				C0.5,4.935,4.935,0.5,10.406,0.5c5.47,0,9.906,4.435,9.906,9.906c0,2.2-0.717,4.232-1.93,5.875c0.01,0.01,0.02,0.02,0.029,0.029
				l7.501,7.501c0.391,0.39,0.397,1.017-0.005,1.418l-0.678,0.679c-0.393,0.393-1.029,0.395-1.418,0.004l-7.502-7.501
				C16.3,18.402,16.29,18.392,16.282,18.382z M10.406,18.33c4.376,0,7.925-3.547,7.925-7.924c0-4.376-3.549-7.925-7.925-7.925
				c-4.377,0-7.925,3.548-7.925,7.925C2.481,14.783,6.029,18.33,10.406,18.33z"/>
		</g>
	</g>
</g>
</svg>
