<?xml version="1.0" encoding="UTF-8" standalone="no"?>
<svg width="26px" height="27px" viewBox="0 0 26 27" version="1.1" xmlns="http://www.w3.org/2000/svg" xmlns:xlink="http://www.w3.org/1999/xlink">
    <!-- Generator: Sketch 39.1 (31720) - http://www.bohemiancoding.com/sketch -->
    <title>Search Icon</title>
    <desc>Created with Sketch.</desc>
    <defs></defs>
    <g id="Tourist" stroke="none" stroke-width="1" fill="none" fill-rule="evenodd">
        <g id="Tourist-1" transform="translate(-133.000000, -631.000000)" fill="#FFFFFF">
            <g id="Search" transform="translate(132.666667, 631.000000)">
                <path d="M16.2816528,18.3818775 C14.6378279,19.5948737 12.6056033,20.3118431 10.4059215,20.3118431 C4.93503215,20.3118431 0.5,15.876811 0.5,10.4059215 C0.5,4.93503215 4.93503215,0.5 10.4059215,0.5 C15.876811,0.5 20.3118431,4.93503215 20.3118431,10.4059215 C20.3118431,12.6056122 19.5948679,14.6378443 18.3818628,16.2816727 C18.3918464,16.2908767 18.4016854,16.3003221 18.4113725,16.3100092 L25.912656,23.8112927 C26.3031339,24.2017707 26.3096155,24.828379 25.9082532,25.2297414 L25.2297414,25.9082532 C24.8368318,26.3011627 24.2010143,26.3023776 23.8112927,25.912656 L16.3100092,18.4113725 C16.3003205,18.4016838 16.2908683,18.3918498 16.2816528,18.3818775 Z M10.4059215,18.3306588 C14.7826331,18.3306588 18.3306588,14.7826331 18.3306588,10.4059215 C18.3306588,6.02921003 14.7826331,2.48118431 10.4059215,2.48118431 C6.02921003,2.48118431 2.48118431,6.02921003 2.48118431,10.4059215 C2.48118431,14.7826331 6.02921003,18.3306588 10.4059215,18.3306588 Z" id="Search-Icon"></path>
            </g>
        </g>
    </g>
</svg>